<svg xmlns="http://www.w3.org/2000/svg" viewBox="0 0 32 32">
  <rect x="1" y="1" width="30" height="30" rx="8" fill="#FFF1F2" stroke="#FECDD3" stroke-width="1.5"/>
  <path d="M16 7c-4.2 0-7 2.8-7 6.5v8.5c0 .3.4.5.6.3l2.4-2 2.2 2c.2.2.6.2.8 0l2-1.8 2 1.8c.2.2.6.2.8 0l2.2-2 2.4 2c.2.2.6 0 .6-.3v-8.5c0-3.7-2.8-6.5-7-6.5z" 
        fill="#FFF1F2" stroke="#E11D48" stroke-width="2" stroke-linecap="round" stroke-linejoin="round"/>
  <ellipse cx="13.2" cy="14" rx="1" ry="1.6" fill="#E11D48"/>
  <ellipse cx="18.8" cy="14" rx="1" ry="1.6" fill="#E11D48"/>
</svg>